<svg id="visual" viewBox="0 0 900 450" width="900" height="450" xmlns="http://www.w3.org/2000/svg" xmlns:xlink="http://www.w3.org/1999/xlink" version="1.1"><path d="M0 183L25 182.2C50 181.3 100 179.7 150 158C200 136.3 250 94.7 300 78.7C350 62.7 400 72.3 450 91.7C500 111 550 140 600 137C650 134 700 99 750 83.3C800 67.7 850 71.3 875 73.2L900 75L900 0L875 0C850 0 800 0 750 0C700 0 650 0 600 0C550 0 500 0 450 0C400 0 350 0 300 0C250 0 200 0 150 0C100 0 50 0 25 0L0 0Z" fill="#f1f3f4" stroke-linecap="round" stroke-linejoin="miter"></path></svg>